<svg width="1408" height="1408" viewBox="0 0 1408 1408" fill="none" xmlns="http://www.w3.org/2000/svg">
<path d="M704 192C986.77 192 1216 421.23 1216 704C1216 986.77 986.77 1216 704 1216C421.23 1216 192 986.77 192 704C192 421.23 421.23 192 704 192ZM704 256C456.576 256 256 456.576 256 704C256 951.424 456.576 1152 704 1152C951.424 1152 1152 951.424 1152 704C1152 456.576 951.424 256 704 256Z" fill="#37E8A5"/>
<circle cx="512" cy="704" r="64" fill="#37E8A5"/>
<path d="M512 512C606.786 512 685.53 580.686 701.175 671H940V671.001C956.729 671.001 973.379 674.28 988.984 680.744C1012.37 690.432 1032.36 706.839 1046.43 727.888C1060.49 748.937 1068 773.684 1068 799H1005C1005 763.654 976.346 735 941 735C905.654 735 877 763.654 877 799C877 834.012 905.115 862.457 940 862.991V927C914.684 927 889.937 919.493 868.888 905.429C847.839 891.364 831.432 871.373 821.744 847.984C812.056 824.596 809.521 798.859 814.46 774.029C817.205 760.23 822.19 747.055 829.15 735H701.51C686.689 826.298 607.485 896 512 896C405.961 896 320 810.039 320 704C320 597.961 405.961 512 512 512ZM512 576C441.308 576 384 633.308 384 704C384 774.692 441.308 832 512 832C572.002 832 622.36 790.714 636.219 735H701V671H635.704C621.15 616.301 571.282 576 512 576Z" fill="#37E8A5"/>
</svg>
